<mxfile host="app.diagrams.net" agent="Mozilla/5.0 (Windows NT 10.0; Win64; x64) AppleWebKit/537.36 (KHTML, like Gecko) Chrome/137.0.0.0 Safari/537.36" version="27.1.4" pages="2">
  <diagram name="Page-1" id="r68JQ9L_03iL0zrFrUO0">
    <mxGraphModel dx="1892" dy="1670" grid="1" gridSize="10" guides="1" tooltips="1" connect="1" arrows="1" fold="1" page="1" pageScale="1" pageWidth="850" pageHeight="1100" math="0" shadow="0">
      <root>
        <mxCell id="0" />
        <mxCell id="1" parent="0" />
        <mxCell id="FqXqkvRIth8s528Mxr9c-41" style="edgeStyle=orthogonalEdgeStyle;rounded=0;orthogonalLoop=1;jettySize=auto;html=1;exitX=0.5;exitY=0;exitDx=0;exitDy=0;entryX=0;entryY=0.5;entryDx=0;entryDy=0;" parent="1" source="FqXqkvRIth8s528Mxr9c-1" target="FqXqkvRIth8s528Mxr9c-2" edge="1">
          <mxGeometry relative="1" as="geometry" />
        </mxCell>
        <mxCell id="FqXqkvRIth8s528Mxr9c-1" value="IDLE" style="ellipse;whiteSpace=wrap;html=1;" parent="1" vertex="1">
          <mxGeometry x="190" y="100" width="90" height="90" as="geometry" />
        </mxCell>
        <mxCell id="FqXqkvRIth8s528Mxr9c-23" style="edgeStyle=orthogonalEdgeStyle;rounded=0;orthogonalLoop=1;jettySize=auto;html=1;exitX=1;exitY=0.5;exitDx=0;exitDy=0;entryX=0.5;entryY=0;entryDx=0;entryDy=0;" parent="1" source="FqXqkvRIth8s528Mxr9c-2" target="FqXqkvRIth8s528Mxr9c-3" edge="1">
          <mxGeometry relative="1" as="geometry" />
        </mxCell>
        <mxCell id="FqXqkvRIth8s528Mxr9c-2" value="S1" style="ellipse;whiteSpace=wrap;html=1;" parent="1" vertex="1">
          <mxGeometry x="350" y="30" width="90" height="90" as="geometry" />
        </mxCell>
        <mxCell id="FqXqkvRIth8s528Mxr9c-24" style="edgeStyle=orthogonalEdgeStyle;rounded=0;orthogonalLoop=1;jettySize=auto;html=1;exitX=1;exitY=0.5;exitDx=0;exitDy=0;entryX=0.5;entryY=0;entryDx=0;entryDy=0;" parent="1" source="FqXqkvRIth8s528Mxr9c-3" target="FqXqkvRIth8s528Mxr9c-10" edge="1">
          <mxGeometry relative="1" as="geometry" />
        </mxCell>
        <mxCell id="FqXqkvRIth8s528Mxr9c-3" value="S2" style="ellipse;whiteSpace=wrap;html=1;" parent="1" vertex="1">
          <mxGeometry x="500" y="100" width="90" height="90" as="geometry" />
        </mxCell>
        <mxCell id="FqXqkvRIth8s528Mxr9c-32" style="edgeStyle=orthogonalEdgeStyle;rounded=0;orthogonalLoop=1;jettySize=auto;html=1;exitX=0;exitY=0.5;exitDx=0;exitDy=0;entryX=0.5;entryY=1;entryDx=0;entryDy=0;" parent="1" source="FqXqkvRIth8s528Mxr9c-4" target="FqXqkvRIth8s528Mxr9c-9" edge="1">
          <mxGeometry relative="1" as="geometry" />
        </mxCell>
        <mxCell id="FqXqkvRIth8s528Mxr9c-4" value="S6" style="ellipse;whiteSpace=wrap;html=1;" parent="1" vertex="1">
          <mxGeometry x="190" y="390" width="90" height="90" as="geometry" />
        </mxCell>
        <mxCell id="FqXqkvRIth8s528Mxr9c-30" style="edgeStyle=orthogonalEdgeStyle;rounded=0;orthogonalLoop=1;jettySize=auto;html=1;exitX=0;exitY=0.5;exitDx=0;exitDy=0;entryX=0.5;entryY=1;entryDx=0;entryDy=0;" parent="1" source="FqXqkvRIth8s528Mxr9c-5" target="FqXqkvRIth8s528Mxr9c-4" edge="1">
          <mxGeometry relative="1" as="geometry" />
        </mxCell>
        <mxCell id="FqXqkvRIth8s528Mxr9c-5" value="S5" style="ellipse;whiteSpace=wrap;html=1;" parent="1" vertex="1">
          <mxGeometry x="350" y="460" width="90" height="90" as="geometry" />
        </mxCell>
        <mxCell id="FqXqkvRIth8s528Mxr9c-29" style="edgeStyle=orthogonalEdgeStyle;rounded=0;orthogonalLoop=1;jettySize=auto;html=1;exitX=0.5;exitY=1;exitDx=0;exitDy=0;entryX=1;entryY=0.5;entryDx=0;entryDy=0;" parent="1" source="FqXqkvRIth8s528Mxr9c-6" target="FqXqkvRIth8s528Mxr9c-5" edge="1">
          <mxGeometry relative="1" as="geometry" />
        </mxCell>
        <mxCell id="FqXqkvRIth8s528Mxr9c-6" value="S4" style="ellipse;whiteSpace=wrap;html=1;" parent="1" vertex="1">
          <mxGeometry x="500" y="390" width="90" height="90" as="geometry" />
        </mxCell>
        <mxCell id="FqXqkvRIth8s528Mxr9c-31" style="edgeStyle=orthogonalEdgeStyle;rounded=0;orthogonalLoop=1;jettySize=auto;html=1;exitX=0.5;exitY=0;exitDx=0;exitDy=0;entryX=0;entryY=0.5;entryDx=0;entryDy=0;" parent="1" source="FqXqkvRIth8s528Mxr9c-8" target="FqXqkvRIth8s528Mxr9c-1" edge="1">
          <mxGeometry relative="1" as="geometry" />
        </mxCell>
        <mxCell id="FqXqkvRIth8s528Mxr9c-38" style="edgeStyle=orthogonalEdgeStyle;rounded=0;orthogonalLoop=1;jettySize=auto;html=1;exitX=1;exitY=0.5;exitDx=0;exitDy=0;entryX=0.5;entryY=1;entryDx=0;entryDy=0;" parent="1" source="FqXqkvRIth8s528Mxr9c-8" target="FqXqkvRIth8s528Mxr9c-2" edge="1">
          <mxGeometry relative="1" as="geometry" />
        </mxCell>
        <mxCell id="FqXqkvRIth8s528Mxr9c-8" value="S8" style="ellipse;whiteSpace=wrap;html=1;" parent="1" vertex="1">
          <mxGeometry x="30" y="180" width="90" height="90" as="geometry" />
        </mxCell>
        <mxCell id="FqXqkvRIth8s528Mxr9c-33" style="edgeStyle=orthogonalEdgeStyle;rounded=0;orthogonalLoop=1;jettySize=auto;html=1;exitX=0.5;exitY=0;exitDx=0;exitDy=0;entryX=0.5;entryY=1;entryDx=0;entryDy=0;" parent="1" source="FqXqkvRIth8s528Mxr9c-9" target="FqXqkvRIth8s528Mxr9c-8" edge="1">
          <mxGeometry relative="1" as="geometry" />
        </mxCell>
        <mxCell id="FqXqkvRIth8s528Mxr9c-9" value="S7" style="ellipse;whiteSpace=wrap;html=1;" parent="1" vertex="1">
          <mxGeometry x="30" y="320" width="90" height="90" as="geometry" />
        </mxCell>
        <mxCell id="FqXqkvRIth8s528Mxr9c-25" style="edgeStyle=orthogonalEdgeStyle;rounded=0;orthogonalLoop=1;jettySize=auto;html=1;exitX=0.5;exitY=1;exitDx=0;exitDy=0;entryX=1;entryY=0.5;entryDx=0;entryDy=0;" parent="1" source="FqXqkvRIth8s528Mxr9c-10" target="FqXqkvRIth8s528Mxr9c-6" edge="1">
          <mxGeometry relative="1" as="geometry" />
        </mxCell>
        <mxCell id="FqXqkvRIth8s528Mxr9c-10" value="S3" style="ellipse;whiteSpace=wrap;html=1;" parent="1" vertex="1">
          <mxGeometry x="590" y="240" width="90" height="90" as="geometry" />
        </mxCell>
        <mxCell id="FqXqkvRIth8s528Mxr9c-11" value="" style="endArrow=classic;html=1;rounded=0;" parent="1" edge="1">
          <mxGeometry width="50" height="50" relative="1" as="geometry">
            <mxPoint x="150" y="80" as="sourcePoint" />
            <mxPoint x="200" y="120" as="targetPoint" />
          </mxGeometry>
        </mxCell>
        <mxCell id="FqXqkvRIth8s528Mxr9c-18" value="start=0/busy=1&lt;div&gt;upd_prod=1&lt;/div&gt;" style="text;html=1;align=center;verticalAlign=middle;whiteSpace=wrap;rounded=0;" parent="1" vertex="1">
          <mxGeometry x="90" y="111" width="60" height="30" as="geometry" />
        </mxCell>
        <mxCell id="FqXqkvRIth8s528Mxr9c-21" value="start==1/busy=0&lt;div&gt;a_sel=00&amp;nbsp;&lt;/div&gt;&lt;div&gt;&lt;span style=&quot;background-color: transparent; color: light-dark(rgb(0, 0, 0), rgb(255, 255, 255));&quot;&gt;b_sel =0&lt;/span&gt;&lt;/div&gt;&lt;div&gt;shift_sel = 000&lt;/div&gt;&lt;div&gt;clr_prod=1&lt;/div&gt;" style="text;html=1;align=center;verticalAlign=middle;whiteSpace=wrap;rounded=0;" parent="1" vertex="1">
          <mxGeometry x="255" y="20" width="110" height="30" as="geometry" />
        </mxCell>
        <mxCell id="FqXqkvRIth8s528Mxr9c-26" value="&lt;div&gt;&lt;br&gt;&lt;/div&gt;&lt;div&gt;busy=1&lt;/div&gt;&lt;div&gt;a_sel=01&lt;/div&gt;&lt;div&gt;shift_sel=001&amp;nbsp;&lt;/div&gt;&lt;div&gt;clr_prod=0&lt;/div&gt;&lt;div&gt;upd_prod=1&lt;/div&gt;" style="text;html=1;align=center;verticalAlign=middle;whiteSpace=wrap;rounded=0;" parent="1" vertex="1">
          <mxGeometry x="460" y="10" width="60" height="30" as="geometry" />
        </mxCell>
        <mxCell id="FqXqkvRIth8s528Mxr9c-27" value="&lt;div&gt;busy=1&lt;/div&gt;&lt;div&gt;a_sel=10&lt;/div&gt;&lt;div&gt;shift_sel=010&lt;/div&gt;&lt;div&gt;upd_prod=1&lt;/div&gt;" style="text;html=1;align=center;verticalAlign=middle;whiteSpace=wrap;rounded=0;" parent="1" vertex="1">
          <mxGeometry x="650" y="160" width="60" height="30" as="geometry" />
        </mxCell>
        <mxCell id="FqXqkvRIth8s528Mxr9c-28" value="&lt;div&gt;busy=1&lt;/div&gt;&lt;div&gt;a_sel=11&lt;/div&gt;&lt;div&gt;shift_sel=011&lt;/div&gt;&lt;div&gt;upd_prod=1&lt;/div&gt;" style="text;html=1;align=center;verticalAlign=middle;whiteSpace=wrap;rounded=0;" parent="1" vertex="1">
          <mxGeometry x="650" y="360" width="60" height="30" as="geometry" />
        </mxCell>
        <mxCell id="FqXqkvRIth8s528Mxr9c-34" value="&lt;div&gt;busy=1&lt;/div&gt;&lt;div&gt;a_sel=00&lt;/div&gt;&lt;div&gt;b_sel=1&lt;/div&gt;&lt;div&gt;shift_sel=010&lt;/div&gt;&lt;div&gt;upd_prod=1&lt;/div&gt;" style="text;html=1;align=center;verticalAlign=middle;whiteSpace=wrap;rounded=0;" parent="1" vertex="1">
          <mxGeometry x="470" y="530" width="60" height="30" as="geometry" />
        </mxCell>
        <mxCell id="FqXqkvRIth8s528Mxr9c-35" value="&lt;div&gt;busy=1&lt;/div&gt;&lt;div&gt;a_sel=01&lt;/div&gt;&lt;div&gt;b_sel=1&lt;/div&gt;&lt;div&gt;shift_sel=011&lt;/div&gt;&lt;div&gt;upd_prod=1&lt;/div&gt;" style="text;html=1;align=center;verticalAlign=middle;whiteSpace=wrap;rounded=0;" parent="1" vertex="1">
          <mxGeometry x="280" y="530" width="60" height="30" as="geometry" />
        </mxCell>
        <mxCell id="FqXqkvRIth8s528Mxr9c-36" value="&lt;div&gt;busy=1&lt;/div&gt;&lt;div&gt;a_sel=10&lt;/div&gt;&lt;div&gt;b_sel=1&lt;/div&gt;&lt;div&gt;shift_sel=100&lt;/div&gt;&lt;div&gt;upd_prod=1&lt;/div&gt;" style="text;html=1;align=center;verticalAlign=middle;whiteSpace=wrap;rounded=0;" parent="1" vertex="1">
          <mxGeometry x="110" y="460" width="60" height="30" as="geometry" />
        </mxCell>
        <mxCell id="FqXqkvRIth8s528Mxr9c-37" value="&lt;div&gt;busy=1&lt;/div&gt;&lt;div&gt;a_sel=11&lt;/div&gt;&lt;div&gt;b_sel=1&lt;/div&gt;&lt;div&gt;shift_sel=101&lt;/div&gt;&lt;div&gt;upd_prod=1&lt;/div&gt;" style="text;html=1;align=center;verticalAlign=middle;whiteSpace=wrap;rounded=0;" parent="1" vertex="1">
          <mxGeometry x="-20" y="280" width="60" height="30" as="geometry" />
        </mxCell>
        <mxCell id="FqXqkvRIth8s528Mxr9c-39" value="&lt;div&gt;&lt;span style=&quot;background-color: transparent; color: light-dark(rgb(0, 0, 0), rgb(255, 255, 255));&quot;&gt;start=1/busy=1&lt;/span&gt;&lt;/div&gt;&lt;div&gt;clr_prod=1&lt;/div&gt;&lt;div&gt;upd_prod=1&lt;/div&gt;" style="text;html=1;align=center;verticalAlign=middle;whiteSpace=wrap;rounded=0;" parent="1" vertex="1">
          <mxGeometry x="290" y="181" width="60" height="30" as="geometry" />
        </mxCell>
        <mxCell id="LFWi8QBFuWSffDfQ2nkz-1" value="" style="curved=1;endArrow=classic;html=1;rounded=0;exitX=0.298;exitY=0.038;exitDx=0;exitDy=0;exitPerimeter=0;entryX=0.316;entryY=0.047;entryDx=0;entryDy=0;entryPerimeter=0;" parent="1" source="FqXqkvRIth8s528Mxr9c-1" edge="1" target="FqXqkvRIth8s528Mxr9c-1">
          <mxGeometry width="50" height="50" relative="1" as="geometry">
            <mxPoint x="360" y="310" as="sourcePoint" />
            <mxPoint x="220" y="100" as="targetPoint" />
            <Array as="points">
              <mxPoint x="160" y="70" />
              <mxPoint x="180" y="30" />
              <mxPoint x="230" y="30" />
            </Array>
          </mxGeometry>
        </mxCell>
        <mxCell id="LFWi8QBFuWSffDfQ2nkz-2" value="start==0/&lt;div&gt;upd_prod=0&lt;/div&gt;" style="text;html=1;align=center;verticalAlign=middle;whiteSpace=wrap;rounded=0;" parent="1" vertex="1">
          <mxGeometry x="170" width="60" height="30" as="geometry" />
        </mxCell>
      </root>
    </mxGraphModel>
  </diagram>
  <diagram name="Copy of Page-1" id="I7BPMKsKVqS7DXZyz2Yz">
    <mxGraphModel dx="1892" dy="1670" grid="1" gridSize="10" guides="1" tooltips="1" connect="1" arrows="1" fold="1" page="1" pageScale="1" pageWidth="850" pageHeight="1100" math="0" shadow="0">
      <root>
        <mxCell id="AaVIe869XegdFuMU7ocb-0" />
        <mxCell id="AaVIe869XegdFuMU7ocb-1" parent="AaVIe869XegdFuMU7ocb-0" />
        <mxCell id="AaVIe869XegdFuMU7ocb-2" style="edgeStyle=orthogonalEdgeStyle;rounded=0;orthogonalLoop=1;jettySize=auto;html=1;exitX=0.5;exitY=0;exitDx=0;exitDy=0;entryX=0;entryY=0.5;entryDx=0;entryDy=0;" parent="AaVIe869XegdFuMU7ocb-1" source="AaVIe869XegdFuMU7ocb-3" target="AaVIe869XegdFuMU7ocb-5" edge="1">
          <mxGeometry relative="1" as="geometry" />
        </mxCell>
        <mxCell id="AaVIe869XegdFuMU7ocb-3" value="IDLE" style="ellipse;whiteSpace=wrap;html=1;" parent="AaVIe869XegdFuMU7ocb-1" vertex="1">
          <mxGeometry x="275" y="250" width="90" height="90" as="geometry" />
        </mxCell>
        <mxCell id="AaVIe869XegdFuMU7ocb-4" style="edgeStyle=orthogonalEdgeStyle;rounded=0;orthogonalLoop=1;jettySize=auto;html=1;exitX=1;exitY=0.5;exitDx=0;exitDy=0;entryX=0.5;entryY=0;entryDx=0;entryDy=0;" parent="AaVIe869XegdFuMU7ocb-1" source="AaVIe869XegdFuMU7ocb-5" target="AaVIe869XegdFuMU7ocb-7" edge="1">
          <mxGeometry relative="1" as="geometry" />
        </mxCell>
        <mxCell id="AaVIe869XegdFuMU7ocb-5" value="S1" style="ellipse;whiteSpace=wrap;html=1;" parent="AaVIe869XegdFuMU7ocb-1" vertex="1">
          <mxGeometry x="350" y="30" width="90" height="90" as="geometry" />
        </mxCell>
        <mxCell id="AaVIe869XegdFuMU7ocb-6" style="edgeStyle=orthogonalEdgeStyle;rounded=0;orthogonalLoop=1;jettySize=auto;html=1;exitX=1;exitY=0.5;exitDx=0;exitDy=0;entryX=0.5;entryY=0;entryDx=0;entryDy=0;" parent="AaVIe869XegdFuMU7ocb-1" source="AaVIe869XegdFuMU7ocb-7" target="AaVIe869XegdFuMU7ocb-20" edge="1">
          <mxGeometry relative="1" as="geometry" />
        </mxCell>
        <mxCell id="AaVIe869XegdFuMU7ocb-7" value="S2" style="ellipse;whiteSpace=wrap;html=1;" parent="AaVIe869XegdFuMU7ocb-1" vertex="1">
          <mxGeometry x="500" y="100" width="90" height="90" as="geometry" />
        </mxCell>
        <mxCell id="AaVIe869XegdFuMU7ocb-8" style="edgeStyle=orthogonalEdgeStyle;rounded=0;orthogonalLoop=1;jettySize=auto;html=1;exitX=0;exitY=0.5;exitDx=0;exitDy=0;entryX=0.5;entryY=1;entryDx=0;entryDy=0;" parent="AaVIe869XegdFuMU7ocb-1" source="AaVIe869XegdFuMU7ocb-9" target="AaVIe869XegdFuMU7ocb-18" edge="1">
          <mxGeometry relative="1" as="geometry" />
        </mxCell>
        <mxCell id="AaVIe869XegdFuMU7ocb-9" value="S6" style="ellipse;whiteSpace=wrap;html=1;" parent="AaVIe869XegdFuMU7ocb-1" vertex="1">
          <mxGeometry x="190" y="390" width="90" height="90" as="geometry" />
        </mxCell>
        <mxCell id="AaVIe869XegdFuMU7ocb-10" style="edgeStyle=orthogonalEdgeStyle;rounded=0;orthogonalLoop=1;jettySize=auto;html=1;exitX=0;exitY=0.5;exitDx=0;exitDy=0;entryX=0.5;entryY=1;entryDx=0;entryDy=0;" parent="AaVIe869XegdFuMU7ocb-1" source="AaVIe869XegdFuMU7ocb-11" target="AaVIe869XegdFuMU7ocb-9" edge="1">
          <mxGeometry relative="1" as="geometry" />
        </mxCell>
        <mxCell id="AaVIe869XegdFuMU7ocb-11" value="S5" style="ellipse;whiteSpace=wrap;html=1;" parent="AaVIe869XegdFuMU7ocb-1" vertex="1">
          <mxGeometry x="350" y="460" width="90" height="90" as="geometry" />
        </mxCell>
        <mxCell id="AaVIe869XegdFuMU7ocb-12" style="edgeStyle=orthogonalEdgeStyle;rounded=0;orthogonalLoop=1;jettySize=auto;html=1;exitX=0.5;exitY=1;exitDx=0;exitDy=0;entryX=1;entryY=0.5;entryDx=0;entryDy=0;" parent="AaVIe869XegdFuMU7ocb-1" source="AaVIe869XegdFuMU7ocb-13" target="AaVIe869XegdFuMU7ocb-11" edge="1">
          <mxGeometry relative="1" as="geometry" />
        </mxCell>
        <mxCell id="DMMn0Jdkr4Rb9d5Cz8Wh-3" style="edgeStyle=orthogonalEdgeStyle;rounded=0;orthogonalLoop=1;jettySize=auto;html=1;exitX=0.5;exitY=0;exitDx=0;exitDy=0;entryX=0.5;entryY=1;entryDx=0;entryDy=0;" parent="AaVIe869XegdFuMU7ocb-1" source="AaVIe869XegdFuMU7ocb-13" target="AaVIe869XegdFuMU7ocb-5" edge="1">
          <mxGeometry relative="1" as="geometry">
            <Array as="points">
              <mxPoint x="545" y="230" />
              <mxPoint x="440" y="230" />
              <mxPoint x="440" y="120" />
            </Array>
          </mxGeometry>
        </mxCell>
        <mxCell id="AaVIe869XegdFuMU7ocb-13" value="S4" style="ellipse;whiteSpace=wrap;html=1;" parent="AaVIe869XegdFuMU7ocb-1" vertex="1">
          <mxGeometry x="500" y="390" width="90" height="90" as="geometry" />
        </mxCell>
        <mxCell id="AaVIe869XegdFuMU7ocb-14" style="edgeStyle=orthogonalEdgeStyle;rounded=0;orthogonalLoop=1;jettySize=auto;html=1;exitX=1;exitY=0.5;exitDx=0;exitDy=0;entryX=0;entryY=0.5;entryDx=0;entryDy=0;" parent="AaVIe869XegdFuMU7ocb-1" source="AaVIe869XegdFuMU7ocb-16" target="AaVIe869XegdFuMU7ocb-3" edge="1">
          <mxGeometry relative="1" as="geometry" />
        </mxCell>
        <mxCell id="6zafmf7vWcgAZ7nxbial-0" style="edgeStyle=orthogonalEdgeStyle;rounded=0;orthogonalLoop=1;jettySize=auto;html=1;exitX=0.5;exitY=0;exitDx=0;exitDy=0;entryX=0;entryY=0.5;entryDx=0;entryDy=0;" edge="1" parent="AaVIe869XegdFuMU7ocb-1" source="AaVIe869XegdFuMU7ocb-16" target="AaVIe869XegdFuMU7ocb-5">
          <mxGeometry relative="1" as="geometry" />
        </mxCell>
        <mxCell id="AaVIe869XegdFuMU7ocb-16" value="S8" style="ellipse;whiteSpace=wrap;html=1;" parent="AaVIe869XegdFuMU7ocb-1" vertex="1">
          <mxGeometry x="30" y="180" width="90" height="90" as="geometry" />
        </mxCell>
        <mxCell id="AaVIe869XegdFuMU7ocb-17" style="edgeStyle=orthogonalEdgeStyle;rounded=0;orthogonalLoop=1;jettySize=auto;html=1;exitX=0.5;exitY=0;exitDx=0;exitDy=0;entryX=0.5;entryY=1;entryDx=0;entryDy=0;" parent="AaVIe869XegdFuMU7ocb-1" source="AaVIe869XegdFuMU7ocb-18" target="AaVIe869XegdFuMU7ocb-16" edge="1">
          <mxGeometry relative="1" as="geometry" />
        </mxCell>
        <mxCell id="r4mUaT7n6K0tL9Q5NWem-0" style="edgeStyle=orthogonalEdgeStyle;rounded=0;orthogonalLoop=1;jettySize=auto;html=1;exitX=1;exitY=0.5;exitDx=0;exitDy=0;entryX=0.5;entryY=1;entryDx=0;entryDy=0;" parent="AaVIe869XegdFuMU7ocb-1" source="AaVIe869XegdFuMU7ocb-18" target="AaVIe869XegdFuMU7ocb-3" edge="1">
          <mxGeometry relative="1" as="geometry" />
        </mxCell>
        <mxCell id="r4mUaT7n6K0tL9Q5NWem-3" style="edgeStyle=orthogonalEdgeStyle;rounded=0;orthogonalLoop=1;jettySize=auto;html=1;exitX=0;exitY=0.5;exitDx=0;exitDy=0;entryX=0.5;entryY=0;entryDx=0;entryDy=0;" parent="AaVIe869XegdFuMU7ocb-1" source="AaVIe869XegdFuMU7ocb-18" target="AaVIe869XegdFuMU7ocb-5" edge="1">
          <mxGeometry relative="1" as="geometry">
            <Array as="points">
              <mxPoint x="-80" y="365" />
              <mxPoint x="-80" y="-40" />
              <mxPoint x="395" y="-40" />
            </Array>
          </mxGeometry>
        </mxCell>
        <mxCell id="AaVIe869XegdFuMU7ocb-18" value="S7" style="ellipse;whiteSpace=wrap;html=1;" parent="AaVIe869XegdFuMU7ocb-1" vertex="1">
          <mxGeometry x="30" y="320" width="90" height="90" as="geometry" />
        </mxCell>
        <mxCell id="AaVIe869XegdFuMU7ocb-19" style="edgeStyle=orthogonalEdgeStyle;rounded=0;orthogonalLoop=1;jettySize=auto;html=1;exitX=0.5;exitY=1;exitDx=0;exitDy=0;entryX=1;entryY=0.5;entryDx=0;entryDy=0;" parent="AaVIe869XegdFuMU7ocb-1" source="AaVIe869XegdFuMU7ocb-20" target="AaVIe869XegdFuMU7ocb-13" edge="1">
          <mxGeometry relative="1" as="geometry" />
        </mxCell>
        <mxCell id="DMMn0Jdkr4Rb9d5Cz8Wh-5" style="edgeStyle=orthogonalEdgeStyle;rounded=0;orthogonalLoop=1;jettySize=auto;html=1;exitX=0.5;exitY=1;exitDx=0;exitDy=0;entryX=0.5;entryY=1;entryDx=0;entryDy=0;" parent="AaVIe869XegdFuMU7ocb-1" source="AaVIe869XegdFuMU7ocb-20" target="AaVIe869XegdFuMU7ocb-11" edge="1">
          <mxGeometry relative="1" as="geometry">
            <Array as="points">
              <mxPoint x="635" y="600" />
              <mxPoint x="395" y="600" />
            </Array>
          </mxGeometry>
        </mxCell>
        <mxCell id="AaVIe869XegdFuMU7ocb-20" value="S3" style="ellipse;whiteSpace=wrap;html=1;" parent="AaVIe869XegdFuMU7ocb-1" vertex="1">
          <mxGeometry x="590" y="240" width="90" height="90" as="geometry" />
        </mxCell>
        <mxCell id="AaVIe869XegdFuMU7ocb-21" value="" style="endArrow=classic;html=1;rounded=0;entryX=0.1;entryY=0.247;entryDx=0;entryDy=0;entryPerimeter=0;" parent="AaVIe869XegdFuMU7ocb-1" edge="1" target="AaVIe869XegdFuMU7ocb-3">
          <mxGeometry width="50" height="50" relative="1" as="geometry">
            <mxPoint x="230" y="240" as="sourcePoint" />
            <mxPoint x="290" y="260" as="targetPoint" />
          </mxGeometry>
        </mxCell>
        <mxCell id="AaVIe869XegdFuMU7ocb-22" value="start=0/busy=1&lt;div&gt;upd_prod=1&lt;/div&gt;" style="text;html=1;align=center;verticalAlign=middle;whiteSpace=wrap;rounded=0;" parent="AaVIe869XegdFuMU7ocb-1" vertex="1">
          <mxGeometry x="130" y="190" width="60" height="30" as="geometry" />
        </mxCell>
        <mxCell id="AaVIe869XegdFuMU7ocb-23" value="start==1/busy=1&lt;div&gt;a_sel=00&amp;nbsp;&lt;/div&gt;&lt;div&gt;&lt;span style=&quot;background-color: transparent; color: light-dark(rgb(0, 0, 0), rgb(255, 255, 255));&quot;&gt;b_sel =0&lt;/span&gt;&lt;/div&gt;&lt;div&gt;shift_sel = 000&lt;/div&gt;&lt;div&gt;clr_prod=1&lt;/div&gt;" style="text;html=1;align=center;verticalAlign=middle;whiteSpace=wrap;rounded=0;" parent="AaVIe869XegdFuMU7ocb-1" vertex="1">
          <mxGeometry x="315" y="170" width="110" height="30" as="geometry" />
        </mxCell>
        <mxCell id="AaVIe869XegdFuMU7ocb-24" value="&lt;div&gt;&lt;br&gt;&lt;/div&gt;&lt;div&gt;busy=1&lt;/div&gt;&lt;div&gt;a_sel=01&lt;/div&gt;&lt;div&gt;shift_sel=001&amp;nbsp;&lt;/div&gt;&lt;div&gt;clr_prod=0&lt;/div&gt;&lt;div&gt;upd_prod=1&lt;/div&gt;" style="text;html=1;align=center;verticalAlign=middle;whiteSpace=wrap;rounded=0;" parent="AaVIe869XegdFuMU7ocb-1" vertex="1">
          <mxGeometry x="460" y="10" width="60" height="30" as="geometry" />
        </mxCell>
        <mxCell id="AaVIe869XegdFuMU7ocb-25" value="&lt;div&gt;busy=1&lt;/div&gt;&lt;div&gt;a_sel=10&lt;/div&gt;&lt;div&gt;shift_sel=010&lt;/div&gt;&lt;div&gt;upd_prod=1&lt;/div&gt;" style="text;html=1;align=center;verticalAlign=middle;whiteSpace=wrap;rounded=0;" parent="AaVIe869XegdFuMU7ocb-1" vertex="1">
          <mxGeometry x="650" y="160" width="60" height="30" as="geometry" />
        </mxCell>
        <mxCell id="AaVIe869XegdFuMU7ocb-26" value="&lt;div&gt;a_msb_is_0==0/&lt;/div&gt;&lt;div&gt;busy=1&lt;/div&gt;&lt;div&gt;a_sel=11&lt;/div&gt;&lt;div&gt;shift_sel=011&lt;/div&gt;&lt;div&gt;upd_prod=1&lt;/div&gt;" style="text;html=1;align=center;verticalAlign=middle;whiteSpace=wrap;rounded=0;" parent="AaVIe869XegdFuMU7ocb-1" vertex="1">
          <mxGeometry x="660" y="360" width="60" height="30" as="geometry" />
        </mxCell>
        <mxCell id="AaVIe869XegdFuMU7ocb-27" value="&lt;div&gt;b_msw_is_0==0/busy=1&lt;/div&gt;&lt;div&gt;a_sel=00&lt;/div&gt;&lt;div&gt;b_sel=1&lt;/div&gt;&lt;div&gt;shift_sel=010&lt;/div&gt;&lt;div&gt;upd_prod=1&lt;/div&gt;" style="text;html=1;align=center;verticalAlign=middle;whiteSpace=wrap;rounded=0;" parent="AaVIe869XegdFuMU7ocb-1" vertex="1">
          <mxGeometry x="480" y="530" width="60" height="30" as="geometry" />
        </mxCell>
        <mxCell id="AaVIe869XegdFuMU7ocb-28" value="&lt;div&gt;busy=1&lt;/div&gt;&lt;div&gt;a_sel=01&lt;/div&gt;&lt;div&gt;b_sel=1&lt;/div&gt;&lt;div&gt;shift_sel=011&lt;/div&gt;&lt;div&gt;upd_prod=1&lt;/div&gt;" style="text;html=1;align=center;verticalAlign=middle;whiteSpace=wrap;rounded=0;" parent="AaVIe869XegdFuMU7ocb-1" vertex="1">
          <mxGeometry x="280" y="530" width="60" height="30" as="geometry" />
        </mxCell>
        <mxCell id="AaVIe869XegdFuMU7ocb-29" value="&lt;div&gt;busy=1&lt;/div&gt;&lt;div&gt;a_sel=10&lt;/div&gt;&lt;div&gt;b_sel=1&lt;/div&gt;&lt;div&gt;shift_sel=100&lt;/div&gt;&lt;div&gt;upd_prod=1&lt;/div&gt;" style="text;html=1;align=center;verticalAlign=middle;whiteSpace=wrap;rounded=0;" parent="AaVIe869XegdFuMU7ocb-1" vertex="1">
          <mxGeometry x="110" y="460" width="60" height="30" as="geometry" />
        </mxCell>
        <mxCell id="AaVIe869XegdFuMU7ocb-30" value="&lt;div&gt;busy=1&lt;/div&gt;&lt;div&gt;a_sel=11&lt;/div&gt;&lt;div&gt;b_sel=1&lt;/div&gt;&lt;div&gt;shift_sel=101&lt;/div&gt;&lt;div&gt;upd_prod=1&lt;/div&gt;" style="text;html=1;align=center;verticalAlign=middle;whiteSpace=wrap;rounded=0;" parent="AaVIe869XegdFuMU7ocb-1" vertex="1">
          <mxGeometry x="-20" y="280" width="60" height="30" as="geometry" />
        </mxCell>
        <mxCell id="AaVIe869XegdFuMU7ocb-31" value="&lt;div&gt;&lt;span style=&quot;background-color: transparent; color: light-dark(rgb(0, 0, 0), rgb(255, 255, 255));&quot;&gt;start=1/busy=1&lt;/span&gt;&lt;/div&gt;&lt;div&gt;clr_prod=1&lt;/div&gt;&lt;div&gt;upd_prod=1&lt;/div&gt;" style="text;html=1;align=center;verticalAlign=middle;whiteSpace=wrap;rounded=0;" parent="AaVIe869XegdFuMU7ocb-1" vertex="1">
          <mxGeometry x="100" y="30" width="60" height="30" as="geometry" />
        </mxCell>
        <mxCell id="AaVIe869XegdFuMU7ocb-33" value="start==0/&lt;div&gt;upd_prod=0&lt;/div&gt;" style="text;html=1;align=center;verticalAlign=middle;whiteSpace=wrap;rounded=0;" parent="AaVIe869XegdFuMU7ocb-1" vertex="1">
          <mxGeometry x="240" y="170" width="60" height="30" as="geometry" />
        </mxCell>
        <mxCell id="DMMn0Jdkr4Rb9d5Cz8Wh-0" value="" style="endArrow=classic;html=1;rounded=0;exitX=0;exitY=0;exitDx=0;exitDy=0;entryX=0.5;entryY=1;entryDx=0;entryDy=0;" parent="AaVIe869XegdFuMU7ocb-1" source="AaVIe869XegdFuMU7ocb-13" target="AaVIe869XegdFuMU7ocb-3" edge="1">
          <mxGeometry width="50" height="50" relative="1" as="geometry">
            <mxPoint x="460" y="370" as="sourcePoint" />
            <mxPoint x="510" y="320" as="targetPoint" />
          </mxGeometry>
        </mxCell>
        <mxCell id="DMMn0Jdkr4Rb9d5Cz8Wh-1" value="b_msw_is_0==1 start==0/&lt;div&gt;upd_prod=1&lt;/div&gt;&lt;div&gt;busy=0&lt;/div&gt;" style="text;html=1;align=center;verticalAlign=middle;whiteSpace=wrap;rounded=0;" parent="AaVIe869XegdFuMU7ocb-1" vertex="1">
          <mxGeometry x="380" y="380" width="60" height="30" as="geometry" />
        </mxCell>
        <mxCell id="DMMn0Jdkr4Rb9d5Cz8Wh-4" value="b_msw_is_0==1 start==1/&lt;div&gt;upd_prod=1&lt;/div&gt;&lt;div&gt;&lt;div&gt;a_sel=00&amp;nbsp;&lt;/div&gt;&lt;div&gt;&lt;span style=&quot;background-color: transparent; color: light-dark(rgb(0, 0, 0), rgb(255, 255, 255));&quot;&gt;b_sel =0&lt;/span&gt;&lt;/div&gt;&lt;div&gt;shift_sel = 000&lt;/div&gt;&lt;div&gt;clr_prod=1&lt;/div&gt;&lt;/div&gt;" style="text;html=1;align=center;verticalAlign=middle;whiteSpace=wrap;rounded=0;" parent="AaVIe869XegdFuMU7ocb-1" vertex="1">
          <mxGeometry x="460" y="270" width="60" height="30" as="geometry" />
        </mxCell>
        <mxCell id="DMMn0Jdkr4Rb9d5Cz8Wh-7" value="&lt;div&gt;a_msb_is_0==1/busy=1&lt;/div&gt;&lt;div&gt;a_sel=00&lt;/div&gt;&lt;div&gt;b_sel=1&lt;/div&gt;&lt;div&gt;shift_sel=010&lt;/div&gt;&lt;div&gt;upd_prod=1&lt;/div&gt;" style="text;html=1;align=center;verticalAlign=middle;whiteSpace=wrap;rounded=0;" parent="AaVIe869XegdFuMU7ocb-1" vertex="1">
          <mxGeometry x="680" y="510" width="60" height="30" as="geometry" />
        </mxCell>
        <mxCell id="r4mUaT7n6K0tL9Q5NWem-1" value="a_msb_is_0==1&lt;div&gt;start==0\&lt;div&gt;busy=0&lt;/div&gt;&lt;div&gt;upd_prod=1&lt;/div&gt;&lt;/div&gt;" style="text;html=1;align=center;verticalAlign=middle;whiteSpace=wrap;rounded=0;" parent="AaVIe869XegdFuMU7ocb-1" vertex="1">
          <mxGeometry x="130" y="320" width="60" height="30" as="geometry" />
        </mxCell>
        <mxCell id="r4mUaT7n6K0tL9Q5NWem-4" value="a_msb_is_0==1&lt;div&gt;start==1\&lt;div&gt;busy=1&lt;div&gt;a_sel=00&amp;nbsp;&lt;/div&gt;&lt;div&gt;&lt;span style=&quot;background-color: transparent; color: light-dark(rgb(0, 0, 0), rgb(255, 255, 255));&quot;&gt;b_sel =0&lt;/span&gt;&lt;/div&gt;&lt;div&gt;shift_sel = 000&lt;/div&gt;&lt;div&gt;clr_prod=1&lt;/div&gt;&lt;/div&gt;&lt;/div&gt;&lt;div&gt;upd_prod=1&lt;/div&gt;" style="text;html=1;align=center;verticalAlign=middle;whiteSpace=wrap;rounded=0;" parent="AaVIe869XegdFuMU7ocb-1" vertex="1">
          <mxGeometry x="-60" y="120" width="70" height="30" as="geometry" />
        </mxCell>
        <mxCell id="6zafmf7vWcgAZ7nxbial-2" value="" style="curved=1;endArrow=classic;html=1;rounded=0;exitX=0;exitY=0;exitDx=0;exitDy=0;" edge="1" parent="AaVIe869XegdFuMU7ocb-1" source="AaVIe869XegdFuMU7ocb-3">
          <mxGeometry width="50" height="50" relative="1" as="geometry">
            <mxPoint x="380" y="180" as="sourcePoint" />
            <mxPoint x="310" y="250" as="targetPoint" />
            <Array as="points">
              <mxPoint x="250" y="230" />
              <mxPoint x="280" y="200" />
              <mxPoint x="320" y="210" />
            </Array>
          </mxGeometry>
        </mxCell>
      </root>
    </mxGraphModel>
  </diagram>
</mxfile>
